<svg width="919" height="518" viewBox="0 0 919 518" fill="none" xmlns="http://www.w3.org/2000/svg">
<circle cx="458" cy="259" r="258.5" fill="white" stroke="#EDD5C8"/>
<g filter="url(#filter0_d)">
<circle cx="457.5" cy="259.5" r="170.5" fill="white"/>
</g>
<path d="M90.4796 245.976C89.3916 246.04 88.6076 246.168 88.1276 246.36C87.6476 246.552 87.3116 246.92 87.1196 247.464C86.9596 248.008 86.8796 248.888 86.8796 250.104V273.912C86.8796 275.128 86.9596 276.008 87.1196 276.552C87.3116 277.096 87.6476 277.464 88.1276 277.656C88.6076 277.848 89.3916 277.976 90.4796 278.04V279C88.7516 278.904 86.3356 278.856 83.2316 278.856C79.8076 278.856 77.2796 278.904 75.6476 279V278.04C76.7036 277.976 77.4716 277.848 77.9516 277.656C78.4636 277.464 78.7996 277.096 78.9596 276.552C79.1516 276.008 79.2476 275.128 79.2476 273.912V250.104C79.2476 248.888 79.1516 248.008 78.9596 247.464C78.7996 246.92 78.4636 246.552 77.9516 246.36C77.4716 246.168 76.7036 246.04 75.6476 245.976V245.016C77.2796 245.112 79.8076 245.16 83.2316 245.16C86.3356 245.16 88.7516 245.112 90.4796 245.016V245.976ZM111.071 253.512C113.503 253.512 115.263 254.136 116.351 255.384C116.895 255.992 117.279 256.776 117.503 257.736C117.727 258.696 117.839 259.992 117.839 261.624V274.536C117.839 275.848 118.062 276.76 118.51 277.272C118.991 277.752 119.791 277.992 120.911 277.992V279C117.711 278.872 115.599 278.808 114.575 278.808C113.615 278.808 111.535 278.872 108.335 279V277.992C109.295 277.992 109.967 277.752 110.351 277.272C110.735 276.76 110.927 275.848 110.927 274.536V259.608C110.927 258.296 110.703 257.304 110.255 256.632C109.839 255.96 109.071 255.624 107.951 255.624C106.639 255.624 105.519 256.168 104.591 257.256C103.663 258.312 103.199 259.624 103.199 261.192V274.536C103.199 275.848 103.391 276.76 103.775 277.272C104.159 277.752 104.831 277.992 105.791 277.992V279C102.847 278.872 100.863 278.808 99.8385 278.808C98.8785 278.808 96.6705 278.872 93.2145 279V277.992C94.3665 277.992 95.1665 277.752 95.6145 277.272C96.0625 276.76 96.2865 275.848 96.2865 274.536V259.416C96.2865 257.944 96.0625 256.872 95.6145 256.2C95.1665 255.528 94.3665 255.192 93.2145 255.192V254.184C94.2385 254.28 95.2305 254.328 96.1905 254.328C99.0385 254.328 101.375 254.104 103.199 253.656V257.976C104.639 255 107.263 253.512 111.071 253.512ZM157.47 283.416C157.47 284.664 157.678 285.512 158.094 285.96C158.542 286.44 159.294 286.68 160.35 286.68V287.688C157.278 287.56 155.262 287.496 154.302 287.496C153.342 287.496 151.086 287.544 147.534 287.64L146.238 287.688V286.68C147.71 286.68 148.798 286.408 149.502 285.864C150.206 285.32 150.558 284.344 150.558 282.936V275.304C150.014 276.744 149.214 277.832 148.158 278.568C147.102 279.304 145.838 279.672 144.366 279.672C141.454 279.672 139.086 278.568 137.262 276.36C135.438 274.152 134.526 270.856 134.526 266.472C134.526 262.248 135.47 259.032 137.358 256.824C139.278 254.616 141.838 253.512 145.038 253.512C146.382 253.512 147.518 253.672 148.446 253.992C149.406 254.28 150.254 254.776 150.99 255.48C152.11 255.512 153.246 255.336 154.398 254.952C155.55 254.536 156.446 254.024 157.086 253.416L157.806 253.8C157.582 254.6 157.47 255.512 157.47 256.536V283.416ZM146.382 277.608C147.342 277.608 148.206 277.256 148.974 276.552C149.774 275.816 150.302 274.84 150.558 273.624V255.96C149.63 255 148.398 254.52 146.862 254.52C143.47 254.52 141.774 258.536 141.774 266.568C141.774 270.504 142.174 273.336 142.974 275.064C143.774 276.76 144.91 277.608 146.382 277.608ZM185.884 273.768C185.884 275.24 186.108 276.312 186.556 276.984C187.036 277.656 187.836 277.992 188.956 277.992V279C187.964 278.904 186.972 278.856 185.98 278.856C183.196 278.856 180.86 279.08 178.972 279.528V275.208C177.5 278.184 174.924 279.672 171.244 279.672C168.844 279.672 167.1 279.048 166.012 277.8C165.5 277.192 165.116 276.408 164.86 275.448C164.636 274.456 164.524 273.16 164.524 271.56V259.416C164.524 257.944 164.284 256.872 163.804 256.2C163.356 255.528 162.572 255.192 161.452 255.192V254.184C162.444 254.28 163.436 254.328 164.428 254.328C167.212 254.328 169.548 254.104 171.436 253.656V273.528C171.436 274.872 171.628 275.88 172.012 276.552C172.428 277.224 173.196 277.56 174.316 277.56C175.596 277.56 176.684 277.032 177.58 275.976C178.508 274.888 178.972 273.56 178.972 271.992V259.416C178.972 257.944 178.732 256.872 178.252 256.2C177.804 255.528 177.02 255.192 175.9 255.192V254.184C176.924 254.28 177.916 254.328 178.876 254.328C181.66 254.328 183.996 254.104 185.884 253.656V273.768ZM203.474 253.512C207.154 253.512 210.034 254.568 212.114 256.68C214.194 258.76 215.234 262.072 215.234 266.616C215.234 271.16 214.194 274.472 212.114 276.552C210.034 278.632 207.154 279.672 203.474 279.672C199.826 279.672 196.946 278.632 194.834 276.552C192.754 274.472 191.714 271.16 191.714 266.616C191.714 262.072 192.754 258.76 194.834 256.68C196.946 254.568 199.826 253.512 203.474 253.512ZM203.474 254.472C202.098 254.472 200.994 255.48 200.162 257.496C199.362 259.48 198.962 262.52 198.962 266.616C198.962 270.712 199.362 273.752 200.162 275.736C200.994 277.72 202.098 278.712 203.474 278.712C204.882 278.712 205.986 277.736 206.786 275.784C207.586 273.8 207.986 270.744 207.986 266.616C207.986 262.488 207.57 259.432 206.738 257.448C205.938 255.464 204.85 254.472 203.474 254.472ZM227.974 254.184H233.638V255.144H227.974V274.536C227.974 275.496 228.134 276.184 228.454 276.6C228.806 276.984 229.35 277.176 230.086 277.176C231.462 277.176 232.55 276.216 233.35 274.296L234.166 274.728C232.95 278.024 230.758 279.672 227.59 279.672C225.478 279.672 223.878 279.128 222.79 278.04C222.118 277.368 221.654 276.536 221.398 275.544C221.174 274.52 221.062 273.128 221.062 271.368V255.144H217.03V254.184H221.062V247.848C223.718 247.848 226.022 247.336 227.974 246.312V254.184ZM241.345 241.8C242.689 241.8 243.745 242.136 244.513 242.808C245.313 243.448 245.713 244.344 245.713 245.496C245.713 246.648 245.313 247.56 244.513 248.232C243.745 248.872 242.689 249.192 241.345 249.192C240.001 249.192 238.929 248.872 238.129 248.232C237.361 247.56 236.977 246.648 236.977 245.496C236.977 244.344 237.361 243.448 238.129 242.808C238.929 242.136 240.001 241.8 241.345 241.8ZM245.089 274.536C245.089 275.848 245.313 276.76 245.761 277.272C246.241 277.752 247.041 277.992 248.161 277.992V279C244.961 278.872 242.833 278.808 241.777 278.808C240.785 278.808 238.561 278.872 235.105 279V277.992C236.257 277.992 237.057 277.752 237.505 277.272C237.953 276.76 238.177 275.848 238.177 274.536V259.416C238.177 257.944 237.953 256.872 237.505 256.2C237.057 255.528 236.257 255.192 235.105 255.192V254.184C236.129 254.28 237.121 254.328 238.081 254.328C240.929 254.328 243.265 254.104 245.089 253.656V274.536ZM268.102 253.512C270.534 253.512 272.294 254.136 273.382 255.384C273.926 255.992 274.31 256.776 274.534 257.736C274.758 258.696 274.87 259.992 274.87 261.624V274.536C274.87 275.848 275.094 276.76 275.542 277.272C276.022 277.752 276.822 277.992 277.942 277.992V279C274.742 278.872 272.63 278.808 271.606 278.808C270.646 278.808 268.566 278.872 265.366 279V277.992C266.326 277.992 266.998 277.752 267.382 277.272C267.766 276.76 267.958 275.848 267.958 274.536V259.608C267.958 258.296 267.734 257.304 267.286 256.632C266.87 255.96 266.102 255.624 264.982 255.624C263.67 255.624 262.55 256.168 261.622 257.256C260.694 258.312 260.23 259.624 260.23 261.192V274.536C260.23 275.848 260.422 276.76 260.806 277.272C261.19 277.752 261.862 277.992 262.822 277.992V279C259.878 278.872 257.894 278.808 256.87 278.808C255.91 278.808 253.702 278.872 250.246 279V277.992C251.398 277.992 252.198 277.752 252.646 277.272C253.094 276.76 253.318 275.848 253.318 274.536V259.416C253.318 257.944 253.094 256.872 252.646 256.2C252.198 255.528 251.398 255.192 250.246 255.192V254.184C251.27 254.28 252.262 254.328 253.222 254.328C256.07 254.328 258.406 254.104 260.23 253.656V257.976C261.67 255 264.294 253.512 268.102 253.512ZM302.154 258.792C301.514 258.792 300.97 258.584 300.522 258.168C300.074 257.72 299.85 257.096 299.85 256.296C299.85 255.528 300.042 254.744 300.426 253.944C299.658 254.264 299.018 254.632 298.506 255.048C298.026 255.432 297.61 255.928 297.258 256.536C298.25 257.72 298.746 259.256 298.746 261.144C298.746 263.672 297.866 265.576 296.106 266.856C294.378 268.136 292.074 268.776 289.194 268.776H288.33C287.018 269.544 286.362 270.392 286.362 271.32C286.362 272.344 287.002 272.856 288.282 272.856H293.514C296.33 272.856 298.57 273.384 300.234 274.44C301.93 275.464 302.778 277.048 302.778 279.192C302.778 280.824 302.25 282.296 301.194 283.608C300.17 284.952 298.602 286.024 296.49 286.824C294.378 287.624 291.786 288.024 288.714 288.024C285.61 288.024 283.114 287.624 281.226 286.824C279.37 286.056 278.442 284.936 278.442 283.464C278.442 282.472 278.89 281.576 279.786 280.776C280.682 280.008 282.01 279.4 283.77 278.952L284.202 279.72C283.05 280.68 282.474 281.784 282.474 283.032C282.474 284.376 283.082 285.4 284.298 286.104C285.514 286.84 287.194 287.208 289.338 287.208C291.578 287.208 293.386 286.76 294.762 285.864C296.17 284.968 296.874 283.704 296.874 282.072C296.874 281.016 296.474 280.184 295.674 279.576C294.906 278.968 293.546 278.664 291.594 278.664H288.618C286.57 278.664 284.97 278.328 283.818 277.656C282.666 276.952 282.09 275.896 282.09 274.488C282.09 273.304 282.506 272.248 283.338 271.32C284.17 270.392 285.434 269.496 287.13 268.632C284.826 268.344 283.002 267.576 281.658 266.328C280.314 265.08 279.642 263.352 279.642 261.144C279.642 258.616 280.506 256.712 282.234 255.432C283.994 254.152 286.314 253.512 289.194 253.512C292.394 253.512 294.842 254.264 296.538 255.768C297.146 254.904 297.898 254.216 298.794 253.704C299.69 253.192 300.602 252.936 301.53 252.936C302.49 252.936 303.242 253.224 303.786 253.8C304.362 254.344 304.65 255.064 304.65 255.96C304.65 256.856 304.394 257.56 303.882 258.072C303.402 258.552 302.826 258.792 302.154 258.792ZM289.194 267.912C290.09 267.912 290.762 267.4 291.21 266.376C291.69 265.352 291.93 263.608 291.93 261.144C291.93 258.68 291.69 256.936 291.21 255.912C290.762 254.888 290.09 254.376 289.194 254.376C288.298 254.376 287.61 254.888 287.13 255.912C286.682 256.936 286.458 258.68 286.458 261.144C286.458 263.608 286.682 265.352 287.13 266.376C287.61 267.4 288.298 267.912 289.194 267.912ZM329.52 253.512C333.2 253.512 336.08 254.568 338.16 256.68C340.24 258.76 341.28 262.072 341.28 266.616C341.28 271.16 340.24 274.472 338.16 276.552C336.08 278.632 333.2 279.672 329.52 279.672C325.872 279.672 322.992 278.632 320.88 276.552C318.8 274.472 317.76 271.16 317.76 266.616C317.76 262.072 318.8 258.76 320.88 256.68C322.992 254.568 325.872 253.512 329.52 253.512ZM329.52 254.472C328.144 254.472 327.04 255.48 326.208 257.496C325.408 259.48 325.008 262.52 325.008 266.616C325.008 270.712 325.408 273.752 326.208 275.736C327.04 277.72 328.144 278.712 329.52 278.712C330.928 278.712 332.032 277.736 332.832 275.784C333.632 273.8 334.032 270.744 334.032 266.616C334.032 262.488 333.616 259.432 332.784 257.448C331.984 255.464 330.896 254.472 329.52 254.472ZM354.021 254.184H359.685V255.144H354.021V274.536C354.021 275.496 354.181 276.184 354.501 276.6C354.853 276.984 355.397 277.176 356.133 277.176C357.509 277.176 358.597 276.216 359.397 274.296L360.213 274.728C358.997 278.024 356.805 279.672 353.637 279.672C351.525 279.672 349.925 279.128 348.837 278.04C348.165 277.368 347.701 276.536 347.445 275.544C347.221 274.52 347.109 273.128 347.109 271.368V255.144H343.077V254.184H347.109V247.848C349.765 247.848 352.069 247.336 354.021 246.312V254.184ZM370.896 257.976C372.336 255 374.944 253.512 378.72 253.512C381.216 253.512 382.976 254.136 384 255.384C384.544 255.992 384.928 256.792 385.152 257.784C385.408 258.744 385.536 260.024 385.536 261.624V274.536C385.536 275.848 385.76 276.76 386.208 277.272C386.656 277.752 387.456 277.992 388.608 277.992V279C385.28 278.872 383.168 278.808 382.272 278.808C381.184 278.808 379.104 278.872 376.032 279V277.992C376.992 277.992 377.664 277.752 378.048 277.272C378.432 276.76 378.624 275.848 378.624 274.536V259.608C378.624 258.296 378.4 257.304 377.952 256.632C377.536 255.96 376.768 255.624 375.648 255.624C374.304 255.624 373.168 256.152 372.24 257.208C371.344 258.232 370.896 259.544 370.896 261.144V274.536C370.896 275.848 371.088 276.76 371.472 277.272C371.856 277.752 372.528 277.992 373.488 277.992V279C370.416 278.872 368.432 278.808 367.536 278.808C366.448 278.808 364.24 278.872 360.912 279V277.992C362.032 277.992 362.816 277.752 363.264 277.272C363.744 276.76 363.984 275.848 363.984 274.536V247.224C363.984 245.752 363.744 244.68 363.264 244.008C362.816 243.336 362.032 243 360.912 243V241.992C361.936 242.088 362.928 242.136 363.888 242.136C366.672 242.136 369.008 241.912 370.896 241.464V257.976ZM404.467 275.736C407.091 275.736 409.203 274.456 410.803 271.896L411.667 272.184C411.027 274.264 409.875 276.04 408.211 277.512C406.579 278.952 404.531 279.672 402.067 279.672C398.675 279.672 395.971 278.6 393.955 276.456C391.971 274.28 390.979 271.08 390.979 266.856C390.979 262.536 392.051 259.24 394.195 256.968C396.339 254.664 399.187 253.512 402.739 253.512C408.755 253.512 411.763 257.064 411.763 264.168H398.275C398.243 264.648 398.227 265.4 398.227 266.424C398.227 268.536 398.515 270.296 399.091 271.704C399.699 273.112 400.467 274.136 401.395 274.776C402.355 275.416 403.379 275.736 404.467 275.736ZM402.451 254.52C401.299 254.52 400.339 255.24 399.571 256.68C398.835 258.088 398.371 260.28 398.179 263.256H405.715C405.779 260.728 405.523 258.648 404.947 257.016C404.403 255.352 403.571 254.52 402.451 254.52ZM430.773 253.512C432.213 253.512 433.301 253.944 434.037 254.808C434.773 255.672 435.141 256.712 435.141 257.928C435.141 259.112 434.789 260.088 434.085 260.856C433.413 261.592 432.517 261.96 431.397 261.96C430.309 261.96 429.445 261.688 428.805 261.144C428.165 260.568 427.845 259.816 427.845 258.888C427.845 257.352 428.549 256.104 429.957 255.144C429.829 255.112 429.637 255.096 429.381 255.096C429.061 255.096 428.805 255.128 428.613 255.192C427.397 255.384 426.357 256.12 425.493 257.4C424.661 258.68 424.245 259.992 424.245 261.336V274.056C424.245 275.528 424.597 276.552 425.301 277.128C426.037 277.704 427.189 277.992 428.757 277.992V279C428.309 279 427.941 278.984 427.653 278.952C424.389 278.856 422.213 278.808 421.125 278.808C420.261 278.808 418.293 278.856 415.221 278.952C414.965 278.984 414.645 279 414.261 279V277.992C415.413 277.992 416.213 277.752 416.661 277.272C417.109 276.76 417.333 275.848 417.333 274.536V259.416C417.333 257.944 417.109 256.872 416.661 256.2C416.213 255.528 415.413 255.192 414.261 255.192V254.184C415.285 254.28 416.277 254.328 417.237 254.328C420.085 254.328 422.421 254.104 424.245 253.656V258.12C424.853 256.744 425.733 255.64 426.885 254.808C428.037 253.944 429.333 253.512 430.773 253.512ZM446.172 253.512C447.388 253.512 448.508 253.672 449.532 253.992C450.556 254.28 451.34 254.616 451.884 255C452.204 255.224 452.492 255.336 452.748 255.336C453.036 255.336 453.276 255.192 453.468 254.904C453.692 254.584 453.836 254.136 453.9 253.56H454.908C454.78 255.192 454.716 258.008 454.716 262.008H453.708C453.42 259.896 452.78 258.136 451.788 256.728C450.828 255.288 449.42 254.568 447.564 254.568C446.604 254.568 445.804 254.84 445.164 255.384C444.556 255.928 444.252 256.68 444.252 257.64C444.252 258.728 444.62 259.672 445.356 260.472C446.092 261.24 447.244 262.184 448.812 263.304L450.204 264.312C452.156 265.784 453.596 267.096 454.524 268.248C455.452 269.4 455.916 270.84 455.916 272.568C455.916 273.976 455.5 275.224 454.668 276.312C453.868 277.4 452.78 278.232 451.404 278.808C450.028 279.384 448.508 279.672 446.844 279.672C445.084 279.672 443.58 279.336 442.332 278.664C441.308 278.152 440.572 277.816 440.124 277.656C439.804 277.56 439.516 277.672 439.26 277.992C439.036 278.28 438.86 278.728 438.732 279.336H437.724C437.852 277.512 437.916 274.312 437.916 269.736H438.924C439.564 275.624 441.724 278.568 445.404 278.568C446.332 278.568 447.116 278.296 447.756 277.752C448.428 277.176 448.764 276.312 448.764 275.16C448.764 274.264 448.556 273.464 448.14 272.76C447.756 272.056 447.26 271.432 446.652 270.888C446.044 270.344 445.132 269.592 443.916 268.632C442.476 267.48 441.372 266.552 440.604 265.848C439.868 265.144 439.228 264.312 438.684 263.352C438.172 262.392 437.916 261.32 437.916 260.136C437.916 258.088 438.716 256.472 440.316 255.288C441.916 254.104 443.868 253.512 446.172 253.512ZM501.659 254.328C503.291 254.328 504.507 254.28 505.307 254.184V255.144C504.635 255.336 504.027 255.736 503.483 256.344C502.939 256.952 502.459 257.928 502.043 259.272L495.659 279.096C495.307 279.064 494.779 279.048 494.075 279.048C493.403 279.048 492.891 279.064 492.539 279.096L486.011 261.288L480.683 279.096C480.363 279.064 479.851 279.048 479.147 279.048C478.443 279.048 477.915 279.064 477.563 279.096L469.979 257.88C469.595 256.76 469.163 256.04 468.683 255.72C468.203 255.368 467.707 255.192 467.195 255.192V254.184C469.275 254.376 471.547 254.472 474.011 254.472C475.611 254.472 477.691 254.376 480.251 254.184V255.192C479.195 255.192 478.427 255.272 477.947 255.432C477.499 255.592 477.275 255.976 477.275 256.584C477.275 257 477.355 257.432 477.515 257.88L481.835 271.464L487.067 254.136L488.843 254.184L490.571 254.136L496.811 272.472L499.835 262.824C500.283 261.32 500.507 260.104 500.507 259.176C500.507 256.68 499.243 255.336 496.715 255.144V254.184C498.219 254.28 499.867 254.328 501.659 254.328ZM519.873 275.736C522.497 275.736 524.609 274.456 526.209 271.896L527.073 272.184C526.433 274.264 525.281 276.04 523.617 277.512C521.985 278.952 519.937 279.672 517.473 279.672C514.081 279.672 511.377 278.6 509.361 276.456C507.377 274.28 506.385 271.08 506.385 266.856C506.385 262.536 507.457 259.24 509.601 256.968C511.745 254.664 514.593 253.512 518.145 253.512C524.161 253.512 527.169 257.064 527.169 264.168H513.681C513.649 264.648 513.633 265.4 513.633 266.424C513.633 268.536 513.921 270.296 514.497 271.704C515.105 273.112 515.873 274.136 516.801 274.776C517.761 275.416 518.785 275.736 519.873 275.736ZM517.857 254.52C516.705 254.52 515.745 255.24 514.977 256.68C514.241 258.088 513.777 260.28 513.585 263.256H521.121C521.185 260.728 520.929 258.648 520.353 257.016C519.809 255.352 518.977 254.52 517.857 254.52ZM553.632 253.512C554.816 253.512 555.936 253.64 556.992 253.896C558.048 254.152 558.928 254.504 559.632 254.952C560.464 255.464 561.104 256.12 561.552 256.92C562.032 257.688 562.272 258.536 562.272 259.464C562.272 260.584 561.92 261.512 561.216 262.248C560.512 262.952 559.6 263.304 558.48 263.304C557.36 263.304 556.464 262.984 555.792 262.344C555.12 261.704 554.784 260.84 554.784 259.752C554.784 258.792 555.088 257.96 555.696 257.256C556.304 256.552 557.056 256.072 557.952 255.816C557.696 255.464 557.296 255.192 556.752 255C556.24 254.776 555.68 254.664 555.072 254.664C553.152 254.664 551.648 255.72 550.56 257.832C549.504 259.912 548.976 262.648 548.976 266.04C548.976 269.464 549.584 271.928 550.8 273.432C552.016 274.936 553.536 275.688 555.36 275.688C556.448 275.688 557.536 275.4 558.624 274.824C559.744 274.248 560.752 273.24 561.648 271.8L562.464 272.088C561.824 274.168 560.704 275.96 559.104 277.464C557.504 278.936 555.44 279.672 552.912 279.672C549.616 279.672 546.928 278.584 544.848 276.408C542.768 274.232 541.728 271 541.728 266.712C541.728 263.896 542.24 261.496 543.264 259.512C544.288 257.528 545.696 256.04 547.488 255.048C549.28 254.024 551.328 253.512 553.632 253.512ZM571.205 241.8C572.549 241.8 573.605 242.136 574.373 242.808C575.173 243.448 575.573 244.344 575.573 245.496C575.573 246.648 575.173 247.56 574.373 248.232C573.605 248.872 572.549 249.192 571.205 249.192C569.861 249.192 568.789 248.872 567.989 248.232C567.221 247.56 566.837 246.648 566.837 245.496C566.837 244.344 567.221 243.448 567.989 242.808C568.789 242.136 569.861 241.8 571.205 241.8ZM574.949 274.536C574.949 275.848 575.173 276.76 575.621 277.272C576.101 277.752 576.901 277.992 578.021 277.992V279C574.821 278.872 572.693 278.808 571.637 278.808C570.645 278.808 568.42 278.872 564.965 279V277.992C566.117 277.992 566.917 277.752 567.365 277.272C567.813 276.76 568.037 275.848 568.037 274.536V259.416C568.037 257.944 567.813 256.872 567.365 256.2C566.917 255.528 566.117 255.192 564.965 255.192V254.184C565.989 254.28 566.981 254.328 567.941 254.328C570.789 254.328 573.125 254.104 574.949 253.656V274.536ZM589.849 254.184H595.513V255.144H589.849V274.536C589.849 275.496 590.009 276.184 590.329 276.6C590.681 276.984 591.225 277.176 591.961 277.176C593.337 277.176 594.425 276.216 595.225 274.296L596.041 274.728C594.825 278.024 592.633 279.672 589.465 279.672C587.353 279.672 585.753 279.128 584.665 278.04C583.993 277.368 583.529 276.536 583.273 275.544C583.049 274.52 582.937 273.128 582.937 271.368V255.144H578.905V254.184H582.937V247.848C585.593 247.848 587.897 247.336 589.849 246.312V254.184ZM610.905 275.736C613.529 275.736 615.641 274.456 617.241 271.896L618.105 272.184C617.465 274.264 616.313 276.04 614.649 277.512C613.017 278.952 610.969 279.672 608.505 279.672C605.113 279.672 602.409 278.6 600.393 276.456C598.409 274.28 597.417 271.08 597.417 266.856C597.417 262.536 598.489 259.24 600.633 256.968C602.777 254.664 605.625 253.512 609.177 253.512C615.193 253.512 618.201 257.064 618.201 264.168H604.713C604.681 264.648 604.665 265.4 604.665 266.424C604.665 268.536 604.953 270.296 605.529 271.704C606.137 273.112 606.905 274.136 607.833 274.776C608.793 275.416 609.817 275.736 610.905 275.736ZM608.889 254.52C607.737 254.52 606.777 255.24 606.009 256.68C605.273 258.088 604.809 260.28 604.617 263.256H612.153C612.217 260.728 611.961 258.648 611.385 257.016C610.841 255.352 610.009 254.52 608.889 254.52ZM644.567 253.512C648.247 253.512 651.127 254.568 653.207 256.68C655.287 258.76 656.327 262.072 656.327 266.616C656.327 271.16 655.287 274.472 653.207 276.552C651.127 278.632 648.247 279.672 644.567 279.672C640.919 279.672 638.039 278.632 635.927 276.552C633.847 274.472 632.807 271.16 632.807 266.616C632.807 262.072 633.847 258.76 635.927 256.68C638.039 254.568 640.919 253.512 644.567 253.512ZM644.567 254.472C643.191 254.472 642.087 255.48 641.255 257.496C640.455 259.48 640.055 262.52 640.055 266.616C640.055 270.712 640.455 273.752 641.255 275.736C642.087 277.72 643.191 278.712 644.567 278.712C645.975 278.712 647.079 277.736 647.879 275.784C648.679 273.8 649.079 270.744 649.079 266.616C649.079 262.488 648.663 259.432 647.831 257.448C647.031 255.464 645.943 254.472 644.567 254.472ZM683.228 273.768C683.228 275.24 683.452 276.312 683.9 276.984C684.38 277.656 685.18 277.992 686.3 277.992V279C685.308 278.904 684.316 278.856 683.324 278.856C680.54 278.856 678.204 279.08 676.316 279.528V275.208C674.844 278.184 672.268 279.672 668.588 279.672C666.188 279.672 664.444 279.048 663.356 277.8C662.844 277.192 662.46 276.408 662.204 275.448C661.98 274.456 661.868 273.16 661.868 271.56V259.416C661.868 257.944 661.628 256.872 661.148 256.2C660.7 255.528 659.916 255.192 658.796 255.192V254.184C659.788 254.28 660.78 254.328 661.772 254.328C664.556 254.328 666.892 254.104 668.78 253.656V273.528C668.78 274.872 668.972 275.88 669.356 276.552C669.772 277.224 670.54 277.56 671.66 277.56C672.94 277.56 674.028 277.032 674.924 275.976C675.852 274.888 676.316 273.56 676.316 271.992V259.416C676.316 257.944 676.076 256.872 675.596 256.2C675.148 255.528 674.364 255.192 673.244 255.192V254.184C674.268 254.28 675.26 254.328 676.22 254.328C679.004 254.328 681.34 254.104 683.228 253.656V273.768ZM704.945 253.512C706.385 253.512 707.473 253.944 708.209 254.808C708.945 255.672 709.313 256.712 709.313 257.928C709.313 259.112 708.961 260.088 708.257 260.856C707.585 261.592 706.689 261.96 705.569 261.96C704.481 261.96 703.617 261.688 702.977 261.144C702.337 260.568 702.017 259.816 702.017 258.888C702.017 257.352 702.721 256.104 704.129 255.144C704.001 255.112 703.809 255.096 703.553 255.096C703.233 255.096 702.977 255.128 702.785 255.192C701.569 255.384 700.529 256.12 699.665 257.4C698.833 258.68 698.417 259.992 698.417 261.336V274.056C698.417 275.528 698.769 276.552 699.473 277.128C700.209 277.704 701.361 277.992 702.929 277.992V279C702.481 279 702.113 278.984 701.825 278.952C698.561 278.856 696.385 278.808 695.297 278.808C694.433 278.808 692.465 278.856 689.393 278.952C689.137 278.984 688.817 279 688.433 279V277.992C689.585 277.992 690.385 277.752 690.833 277.272C691.281 276.76 691.505 275.848 691.505 274.536V259.416C691.505 257.944 691.281 256.872 690.833 256.2C690.385 255.528 689.585 255.192 688.433 255.192V254.184C689.457 254.28 690.449 254.328 691.409 254.328C694.257 254.328 696.593 254.104 698.417 253.656V258.12C699.025 256.744 699.905 255.64 701.057 254.808C702.209 253.944 703.505 253.512 704.945 253.512ZM720.344 253.512C721.56 253.512 722.68 253.672 723.704 253.992C724.728 254.28 725.512 254.616 726.056 255C726.376 255.224 726.664 255.336 726.92 255.336C727.208 255.336 727.448 255.192 727.64 254.904C727.864 254.584 728.008 254.136 728.072 253.56H729.08C728.952 255.192 728.888 258.008 728.888 262.008H727.88C727.592 259.896 726.952 258.136 725.96 256.728C725 255.288 723.592 254.568 721.736 254.568C720.776 254.568 719.976 254.84 719.336 255.384C718.728 255.928 718.424 256.68 718.424 257.64C718.424 258.728 718.792 259.672 719.528 260.472C720.264 261.24 721.416 262.184 722.984 263.304L724.376 264.312C726.328 265.784 727.768 267.096 728.696 268.248C729.624 269.4 730.088 270.84 730.088 272.568C730.088 273.976 729.672 275.224 728.84 276.312C728.04 277.4 726.952 278.232 725.576 278.808C724.2 279.384 722.68 279.672 721.016 279.672C719.256 279.672 717.752 279.336 716.504 278.664C715.48 278.152 714.744 277.816 714.296 277.656C713.976 277.56 713.688 277.672 713.432 277.992C713.208 278.28 713.032 278.728 712.904 279.336H711.896C712.024 277.512 712.088 274.312 712.088 269.736H713.096C713.736 275.624 715.896 278.568 719.576 278.568C720.504 278.568 721.288 278.296 721.928 277.752C722.6 277.176 722.936 276.312 722.936 275.16C722.936 274.264 722.728 273.464 722.312 272.76C721.928 272.056 721.432 271.432 720.824 270.888C720.216 270.344 719.304 269.592 718.088 268.632C716.648 267.48 715.544 266.552 714.776 265.848C714.04 265.144 713.4 264.312 712.855 263.352C712.344 262.392 712.088 261.32 712.088 260.136C712.088 258.088 712.888 256.472 714.488 255.288C716.088 254.104 718.04 253.512 720.344 253.512ZM747.123 275.736C749.747 275.736 751.859 274.456 753.459 271.896L754.323 272.184C753.683 274.264 752.531 276.04 750.867 277.512C749.235 278.952 747.187 279.672 744.723 279.672C741.331 279.672 738.627 278.6 736.611 276.456C734.627 274.28 733.635 271.08 733.635 266.856C733.635 262.536 734.707 259.24 736.851 256.968C738.995 254.664 741.843 253.512 745.395 253.512C751.411 253.512 754.419 257.064 754.419 264.168H740.931C740.899 264.648 740.883 265.4 740.883 266.424C740.883 268.536 741.171 270.296 741.747 271.704C742.355 273.112 743.123 274.136 744.051 274.776C745.011 275.416 746.035 275.736 747.123 275.736ZM745.107 254.52C743.955 254.52 742.995 255.24 742.227 256.68C741.491 258.088 741.027 260.28 740.835 263.256H748.371C748.435 260.728 748.179 258.648 747.603 257.016C747.059 255.352 746.227 254.52 745.107 254.52ZM766.991 274.536C766.991 275.848 767.215 276.76 767.663 277.272C768.111 277.752 768.911 277.992 770.063 277.992V279C766.735 278.872 764.591 278.808 763.631 278.808C762.543 278.808 760.335 278.872 757.007 279V277.992C758.127 277.992 758.911 277.752 759.359 277.272C759.839 276.76 760.079 275.848 760.079 274.536V247.176C760.079 245.704 759.839 244.632 759.359 243.96C758.911 243.288 758.127 242.952 757.007 242.952V241.944C758.031 242.04 759.023 242.088 759.983 242.088C762.767 242.088 765.103 241.864 766.991 241.416V274.536ZM791.593 254.328C793.225 254.328 794.457 254.28 795.289 254.184V255.144C794.617 255.336 794.009 255.752 793.465 256.392C792.953 257 792.457 257.96 791.977 259.272L784.969 279.096C784.617 279.064 784.089 279.048 783.385 279.048C782.713 279.048 782.201 279.064 781.849 279.096L773.305 257.88C772.857 256.792 772.393 256.072 771.913 255.72C771.465 255.368 771.001 255.192 770.521 255.192V254.184C772.761 254.344 775.033 254.424 777.337 254.424C779.353 254.424 781.433 254.344 783.577 254.184V255.192C782.489 255.192 781.705 255.272 781.225 255.432C780.777 255.56 780.553 255.944 780.553 256.584C780.553 256.84 780.633 257.24 780.793 257.784L786.265 272.328L789.721 262.824C790.233 261.32 790.489 260.024 790.489 258.936C790.489 256.6 789.321 255.336 786.985 255.144V254.184C788.457 254.28 789.993 254.328 791.593 254.328ZM809.889 275.736C812.513 275.736 814.625 274.456 816.225 271.896L817.089 272.184C816.449 274.264 815.297 276.04 813.633 277.512C812.001 278.952 809.953 279.672 807.489 279.672C804.097 279.672 801.393 278.6 799.377 276.456C797.393 274.28 796.401 271.08 796.401 266.856C796.401 262.536 797.473 259.24 799.617 256.968C801.761 254.664 804.609 253.512 808.161 253.512C814.177 253.512 817.185 257.064 817.185 264.168H803.697C803.665 264.648 803.649 265.4 803.649 266.424C803.649 268.536 803.937 270.296 804.513 271.704C805.121 273.112 805.889 274.136 806.817 274.776C807.777 275.416 808.801 275.736 809.889 275.736ZM807.873 254.52C806.721 254.52 805.761 255.24 804.993 256.68C804.257 258.088 803.793 260.28 803.601 263.256H811.137C811.201 260.728 810.945 258.648 810.369 257.016C809.825 255.352 808.993 254.52 807.873 254.52ZM829.469 253.512C830.685 253.512 831.805 253.672 832.829 253.992C833.853 254.28 834.637 254.616 835.181 255C835.501 255.224 835.789 255.336 836.045 255.336C836.333 255.336 836.573 255.192 836.765 254.904C836.989 254.584 837.133 254.136 837.197 253.56H838.205C838.077 255.192 838.013 258.008 838.013 262.008H837.005C836.717 259.896 836.077 258.136 835.085 256.728C834.125 255.288 832.717 254.568 830.861 254.568C829.901 254.568 829.101 254.84 828.461 255.384C827.853 255.928 827.549 256.68 827.549 257.64C827.549 258.728 827.917 259.672 828.653 260.472C829.389 261.24 830.541 262.184 832.109 263.304L833.501 264.312C835.453 265.784 836.893 267.096 837.821 268.248C838.749 269.4 839.213 270.84 839.213 272.568C839.213 273.976 838.797 275.224 837.965 276.312C837.165 277.4 836.077 278.232 834.701 278.808C833.325 279.384 831.805 279.672 830.141 279.672C828.381 279.672 826.877 279.336 825.629 278.664C824.605 278.152 823.869 277.816 823.421 277.656C823.101 277.56 822.813 277.672 822.557 277.992C822.333 278.28 822.157 278.728 822.029 279.336H821.021C821.149 277.512 821.213 274.312 821.213 269.736H822.221C822.861 275.624 825.021 278.568 828.701 278.568C829.629 278.568 830.413 278.296 831.053 277.752C831.725 277.176 832.061 276.312 832.061 275.16C832.061 274.264 831.853 273.464 831.437 272.76C831.053 272.056 830.557 271.432 829.949 270.888C829.341 270.344 828.429 269.592 827.213 268.632C825.773 267.48 824.669 266.552 823.901 265.848C823.165 265.144 822.525 264.312 821.98 263.352C821.469 262.392 821.213 261.32 821.213 260.136C821.213 258.088 822.013 256.472 823.613 255.288C825.213 254.104 827.165 253.512 829.469 253.512Z" fill="#23242C"/>
<path opacity="0.29" d="M68.6093 255.766L69.4559 255.234L69.4488 255.222L69.4413 255.211L68.6093 255.766ZM65.1213 247.7L64.1565 247.963L65.1213 247.7ZM69.6993 217.18L70.5405 217.721L70.5451 217.714L70.5496 217.706L69.6993 217.18ZM86.7033 202.792L87.5977 202.345L87.1643 201.478L86.2842 201.884L86.7033 202.792ZM88.6653 206.716L89.0477 207.64L90.04 207.229L89.5597 206.269L88.6653 206.716ZM77.7653 214.782L78.516 215.443L78.5236 215.434L78.531 215.425L77.7653 214.782ZM72.0973 225.9L73.0674 226.143L73.0786 226.098L73.0857 226.052L72.0973 225.9ZM72.0973 235.056L71.1486 235.372L71.686 236.985L72.8345 235.732L72.0973 235.056ZM97.1673 234.184L97.8578 233.461L97.849 233.452L97.84 233.444L97.1673 234.184ZM96.9493 258.6L96.275 257.862L96.2665 257.869L96.2581 257.877L96.9493 258.6ZM23.7013 255.766L24.5479 255.234L24.5408 255.222L24.5333 255.211L23.7013 255.766ZM20.2133 247.7L19.2485 247.963L20.2133 247.7ZM24.7913 217.18L25.6325 217.721L25.6371 217.714L25.6416 217.706L24.7913 217.18ZM41.7953 202.792L42.6897 202.345L42.2563 201.478L41.3762 201.884L41.7953 202.792ZM43.7573 206.716L44.1397 207.64L45.132 207.229L44.6517 206.269L43.7573 206.716ZM32.8573 214.782L33.608 215.443L33.6156 215.434L33.623 215.425L32.8573 214.782ZM27.1893 225.9L28.1594 226.143L28.1706 226.098L28.1777 226.052L27.1893 225.9ZM27.1893 235.056L26.2406 235.372L26.778 236.985L27.9264 235.732L27.1893 235.056ZM52.2593 234.184L52.9498 233.461L52.941 233.452L52.932 233.444L52.2593 234.184ZM52.0413 258.6L51.367 257.862L51.3585 257.869L51.3501 257.877L52.0413 258.6ZM84.0873 262.396C77.2355 262.396 72.4339 259.972 69.4559 255.234L67.7627 256.298C71.1793 261.734 76.6964 264.396 84.0873 264.396L84.0873 262.396ZM69.4413 255.211C68.061 253.141 66.9369 250.557 66.0861 247.437L64.1565 247.963C65.0497 251.238 66.2509 254.031 67.7772 256.321L69.4413 255.211ZM66.0861 247.437C65.2386 244.33 64.8133 241.076 64.8133 237.672L62.8133 237.672C62.8133 241.244 63.26 244.676 64.1565 247.963L66.0861 247.437ZM64.8133 237.672C64.8133 230.298 66.7246 223.657 70.5405 217.721L68.8581 216.639C64.826 222.911 62.8133 229.931 62.8133 237.672L64.8133 237.672ZM70.5496 217.706C74.2094 211.794 79.714 207.119 87.1224 203.7L86.2842 201.884C78.578 205.441 72.7466 210.358 68.849 216.654L70.5496 217.706ZM85.8089 203.239L87.7709 207.163L89.5597 206.269L87.5977 202.345L85.8089 203.239ZM88.2829 205.792C83.9137 207.6 80.1507 210.388 76.9996 214.139L78.531 215.425C81.4839 211.91 84.9875 209.32 89.0477 207.64L88.2829 205.792ZM77.0146 214.121C73.7244 217.86 71.7261 221.736 71.1089 225.748L73.0857 226.052C73.6311 222.506 75.4115 218.97 78.516 215.443L77.0146 214.121ZM71.1272 225.657C70.6737 227.471 70.4433 229.224 70.4433 230.914L72.4433 230.914C72.4433 229.407 72.6489 227.817 73.0674 226.143L71.1272 225.657ZM70.4433 230.914C70.4433 232.469 70.6768 233.957 71.1486 235.372L73.046 234.74C72.6458 233.539 72.4433 232.266 72.4433 230.914L70.4433 230.914ZM72.8345 235.732C75.8212 232.473 79.7566 230.824 84.7413 230.824L84.7413 228.824C79.262 228.824 74.7681 230.663 71.3601 234.38L72.8345 235.732ZM84.7413 230.824C89.626 230.824 93.5133 232.214 96.4946 234.924L97.84 233.444C94.4267 230.341 90.03 228.824 84.7413 228.824L84.7413 230.824ZM96.4768 234.907C99.4403 237.736 100.963 241.597 100.963 246.61L102.963 246.61C102.963 241.159 101.289 236.736 97.8578 233.461L96.4768 234.907ZM100.963 246.61C100.963 251.299 99.3898 255.018 96.275 257.862L97.6236 259.338C101.194 256.078 102.963 251.804 102.963 246.61L100.963 246.61ZM96.2581 257.877C93.1263 260.873 89.0983 262.396 84.0873 262.396L84.0873 264.396C89.5403 264.396 94.0869 262.722 97.6405 259.323L96.2581 257.877ZM39.1793 262.396C32.3275 262.396 27.5259 259.972 24.5479 255.234L22.8547 256.298C26.2713 261.734 31.7884 264.396 39.1793 264.396L39.1793 262.396ZM24.5333 255.211C23.153 253.141 22.0289 250.557 21.1781 247.437L19.2485 247.963C20.1417 251.238 21.3429 254.031 22.8692 256.321L24.5333 255.211ZM21.1781 247.437C20.3306 244.33 19.9053 241.076 19.9053 237.672L17.9053 237.672C17.9053 241.244 18.3519 244.676 19.2485 247.963L21.1781 247.437ZM19.9053 237.672C19.9053 230.298 21.8166 223.657 25.6325 217.721L23.9501 216.639C19.918 222.911 17.9053 229.931 17.9053 237.672L19.9053 237.672ZM25.6416 217.706C29.3014 211.794 34.806 207.119 42.2144 203.7L41.3762 201.884C33.67 205.441 27.8386 210.358 23.941 216.654L25.6416 217.706ZM40.9009 203.239L42.8629 207.163L44.6517 206.269L42.6897 202.345L40.9009 203.239ZM43.3749 205.792C39.0057 207.6 35.2427 210.388 32.0916 214.139L33.623 215.425C36.5759 211.91 40.0795 209.32 44.1397 207.64L43.3749 205.792ZM32.1066 214.121C28.8164 217.86 26.8181 221.736 26.2009 225.748L28.1777 226.052C28.7231 222.506 30.5035 218.97 33.608 215.443L32.1066 214.121ZM26.2192 225.657C25.7657 227.471 25.5353 229.224 25.5353 230.914L27.5353 230.914C27.5353 229.407 27.7408 227.817 28.1594 226.143L26.2192 225.657ZM25.5353 230.914C25.5353 232.469 25.7688 233.957 26.2406 235.372L28.138 234.74C27.7378 233.539 27.5353 232.266 27.5353 230.914L25.5353 230.914ZM27.9264 235.732C30.9132 232.473 34.8486 230.824 39.8333 230.824L39.8333 228.824C34.354 228.824 29.8601 230.663 26.4521 234.38L27.9264 235.732ZM39.8333 230.824C44.718 230.824 48.6053 232.214 51.5866 234.924L52.932 233.444C49.5187 230.341 45.122 228.824 39.8333 228.824L39.8333 230.824ZM51.5688 234.907C54.5323 237.736 56.0553 241.597 56.0553 246.61L58.0553 246.61C58.0553 241.159 56.3809 236.736 52.9498 233.461L51.5688 234.907ZM56.0553 246.61C56.0553 251.299 54.4818 255.018 51.367 257.862L52.7156 259.338C56.2861 256.078 58.0553 251.804 58.0553 246.61L56.0553 246.61ZM51.3501 257.877C48.2183 260.873 44.1903 262.396 39.1793 262.396L39.1793 264.396C44.6323 264.396 49.1789 262.722 52.7325 259.323L51.3501 257.877Z" fill="#964F4C"/>
<path opacity="0.29" d="M850.391 266.234L849.544 266.766L849.551 266.778L849.559 266.789L850.391 266.234ZM853.879 274.3L854.843 274.037L853.879 274.3ZM849.301 304.82L848.46 304.279L848.455 304.286L848.45 304.294L849.301 304.82ZM832.297 319.208L831.402 319.655L831.836 320.522L832.716 320.116L832.297 319.208ZM830.335 315.284L829.952 314.36L828.96 314.771L829.44 315.731L830.335 315.284ZM841.235 307.218L840.484 306.557L840.476 306.566L840.469 306.575L841.235 307.218ZM846.903 296.1L845.933 295.857L845.921 295.902L845.914 295.948L846.903 296.1ZM846.903 286.944L847.851 286.628L847.314 285.015L846.166 286.268L846.903 286.944ZM821.833 287.816L821.142 288.539L821.151 288.548L821.16 288.556L821.833 287.816ZM822.051 263.4L822.725 264.138L822.734 264.131L822.742 264.123L822.051 263.4ZM895.299 266.234L894.452 266.766L894.459 266.778L894.467 266.789L895.299 266.234ZM898.787 274.3L899.751 274.037L898.787 274.3ZM894.209 304.82L893.368 304.279L893.363 304.286L893.358 304.294L894.209 304.82ZM877.205 319.208L876.31 319.655L876.744 320.522L877.624 320.116L877.205 319.208ZM875.243 315.284L874.86 314.36L873.868 314.771L874.348 315.731L875.243 315.284ZM886.143 307.218L885.392 306.557L885.384 306.566L885.377 306.575L886.143 307.218ZM891.811 296.1L890.841 295.857L890.829 295.902L890.822 295.948L891.811 296.1ZM891.811 286.944L892.759 286.628L892.222 285.015L891.074 286.268L891.811 286.944ZM866.741 287.816L866.05 288.539L866.059 288.548L866.068 288.556L866.741 287.816ZM866.959 263.4L867.633 264.138L867.642 264.131L867.65 264.123L866.959 263.4ZM834.913 259.604C841.764 259.604 846.566 262.028 849.544 266.766L851.237 265.702C847.821 260.266 842.304 257.604 834.913 257.604V259.604ZM849.559 266.789C850.939 268.859 852.063 271.443 852.914 274.563L854.843 274.037C853.95 270.762 852.749 267.969 851.223 265.679L849.559 266.789ZM852.914 274.563C853.761 277.67 854.187 280.924 854.187 284.328H856.187C856.187 280.756 855.74 277.324 854.843 274.037L852.914 274.563ZM854.187 284.328C854.187 291.702 852.275 298.343 848.46 304.279L850.142 305.361C854.174 299.089 856.187 292.069 856.187 284.328H854.187ZM848.45 304.294C844.791 310.206 839.286 314.881 831.878 318.3L832.716 320.116C840.422 316.559 846.253 311.642 850.151 305.346L848.45 304.294ZM833.191 318.761L831.229 314.837L829.44 315.731L831.402 319.655L833.191 318.761ZM830.717 316.208C835.086 314.4 838.849 311.612 842 307.861L840.469 306.575C837.516 310.09 834.012 312.68 829.952 314.36L830.717 316.208ZM841.985 307.879C845.276 304.14 847.274 300.264 847.891 296.252L845.914 295.948C845.369 299.494 843.588 303.03 840.484 306.557L841.985 307.879ZM847.873 296.343C848.326 294.529 848.557 292.776 848.557 291.086H846.557C846.557 292.593 846.351 294.183 845.933 295.857L847.873 296.343ZM848.557 291.086C848.557 289.531 848.323 288.043 847.851 286.628L845.954 287.26C846.354 288.461 846.557 289.734 846.557 291.086H848.557ZM846.166 286.268C843.179 289.527 839.243 291.176 834.259 291.176V293.176C839.738 293.176 844.232 291.337 847.64 287.62L846.166 286.268ZM834.259 291.176C829.374 291.176 825.487 289.786 822.505 287.076L821.16 288.556C824.573 291.659 828.97 293.176 834.259 293.176V291.176ZM822.523 287.093C819.56 284.264 818.037 280.403 818.037 275.39H816.037C816.037 280.841 817.711 285.264 821.142 288.539L822.523 287.093ZM818.037 275.39C818.037 270.701 819.61 266.982 822.725 264.138L821.376 262.662C817.806 265.922 816.037 270.196 816.037 275.39H818.037ZM822.742 264.123C825.874 261.127 829.902 259.604 834.913 259.604V257.604C829.46 257.604 824.913 259.278 821.359 262.677L822.742 264.123ZM879.821 259.604C886.672 259.604 891.474 262.028 894.452 266.766L896.145 265.702C892.729 260.266 887.212 257.604 879.821 257.604V259.604ZM894.467 266.789C895.847 268.859 896.971 271.443 897.822 274.563L899.751 274.037C898.858 270.762 897.657 267.969 896.131 265.679L894.467 266.789ZM897.822 274.563C898.669 277.67 899.095 280.924 899.095 284.328H901.095C901.095 280.756 900.648 277.324 899.751 274.037L897.822 274.563ZM899.095 284.328C899.095 291.702 897.183 298.343 893.368 304.279L895.05 305.361C899.082 299.089 901.095 292.069 901.095 284.328H899.095ZM893.358 304.294C889.699 310.206 884.194 314.881 876.786 318.3L877.624 320.116C885.33 316.559 891.161 311.642 895.059 305.346L893.358 304.294ZM878.099 318.761L876.137 314.837L874.348 315.731L876.31 319.655L878.099 318.761ZM875.625 316.208C879.994 314.4 883.757 311.612 886.908 307.861L885.377 306.575C882.424 310.09 878.92 312.68 874.86 314.36L875.625 316.208ZM886.893 307.879C890.184 304.14 892.182 300.264 892.799 296.252L890.822 295.948C890.277 299.494 888.496 303.03 885.392 306.557L886.893 307.879ZM892.781 296.343C893.234 294.529 893.465 292.776 893.465 291.086H891.465C891.465 292.593 891.259 294.183 890.841 295.857L892.781 296.343ZM893.465 291.086C893.465 289.531 893.231 288.043 892.759 286.628L890.862 287.26C891.262 288.461 891.465 289.734 891.465 291.086H893.465ZM891.074 286.268C888.087 289.527 884.151 291.176 879.167 291.176V293.176C884.646 293.176 889.14 291.337 892.548 287.62L891.074 286.268ZM879.167 291.176C874.282 291.176 870.395 289.786 867.413 287.076L866.068 288.556C869.481 291.659 873.878 293.176 879.167 293.176V291.176ZM867.431 287.093C864.468 284.264 862.945 280.403 862.945 275.39H860.945C860.945 280.841 862.619 285.264 866.05 288.539L867.431 287.093ZM862.945 275.39C862.945 270.701 864.518 266.982 867.633 264.138L866.284 262.662C862.714 265.922 860.945 270.196 860.945 275.39H862.945ZM867.65 264.123C870.782 261.127 874.81 259.604 879.821 259.604V257.604C874.368 257.604 869.821 259.278 866.267 262.677L867.65 264.123Z" fill="#964F4C"/>
<defs>
<filter id="filter0_d" x="223" y="25" width="469" height="469" filterUnits="userSpaceOnUse" color-interpolation-filters="sRGB">
<feFlood flood-opacity="0" result="BackgroundImageFix"/>
<feColorMatrix in="SourceAlpha" type="matrix" values="0 0 0 0 0 0 0 0 0 0 0 0 0 0 0 0 0 0 127 0" result="hardAlpha"/>
<feOffset/>
<feGaussianBlur stdDeviation="32"/>
<feColorMatrix type="matrix" values="0 0 0 0 0.929167 0 0 0 0 0.833669 0 0 0 0 0.78592 0 0 0 1 0"/>
<feBlend mode="normal" in2="BackgroundImageFix" result="effect1_dropShadow"/>
<feBlend mode="normal" in="SourceGraphic" in2="effect1_dropShadow" result="shape"/>
</filter>
</defs>
</svg>
