<svg width="303" height="30" viewBox="0 0 303 30" fill="none" xmlns="http://www.w3.org/2000/svg">
<path d="M0.199951 28.9999H11.32V28.4399C7.31995 27.9199 6.11995 26.2399 6.11995 22.1999V3.83986H6.35995L16.76 29.0399H18.2L27.52 3.83986H27.72V26.1599C27.72 27.7599 26.72 28.3199 23.88 28.4399V28.9999H37.68V28.4399C34.32 28.3199 33.52 27.6799 33.52 26.1599V3.95986C33.52 2.43986 34.32 1.75986 37.68 1.63986V1.11986H27.4799L19.92 21.6799H19.72L11.48 1.11986H0.199951V1.63986C3.63995 1.71986 5.11995 3.55986 5.11995 5.95986V22.1999C5.11995 26.2399 3.95995 27.9599 0.199951 28.4399V28.9999Z" fill="black"/>
<path d="M57.4028 25.3199C58.1628 27.4399 57.4428 28.2799 53.6028 28.4399V28.9999H67.9228V28.4399C64.9228 27.9999 64.3228 27.3599 63.4428 25.0399L54.4028 0.479862H51.6828L43.4028 21.9199C41.7628 26.0399 40.2428 27.7599 37.6428 28.4399V28.9999H47.0828V28.4399C43.3628 27.9199 42.7228 26.3999 44.3628 22.0799L45.7228 18.3999H54.9228L57.4028 25.3199ZM46.0428 17.5999L50.3628 6.03986H50.5628L54.6428 17.5999H46.0428Z" fill="black"/>
<path d="M68.365 28.9999H82.085C92.445 28.9999 96.645 22.0399 96.645 14.5599C96.645 6.71986 91.605 1.11986 81.445 1.11986H68.365V1.63986C71.685 1.75986 72.525 2.43986 72.525 3.95986V26.1599C72.525 27.6799 71.685 28.3199 68.365 28.4399V28.9999ZM78.365 28.2399V1.83986H80.765C87.085 1.83986 90.285 4.67986 90.285 14.9599C90.285 25.1999 87.805 28.2399 80.845 28.2399H78.365Z" fill="black"/>
<path d="M107.232 28.9999H121.072V28.4399C118.192 28.3199 117.232 27.7999 117.232 26.1599V14.9199H128.512V26.1599C128.512 27.7999 127.512 28.3199 124.632 28.4399V28.9999H138.512V28.4399C135.152 28.3199 134.352 27.7199 134.352 26.1599V3.91986C134.352 2.39986 135.152 1.75986 138.512 1.63986V1.11986H124.632V1.63986C127.512 1.75986 128.512 2.31986 128.512 3.91986V14.1199H117.232V3.91986C117.232 2.31986 118.192 1.75986 121.072 1.63986V1.11986H107.232V1.63986C110.552 1.75986 111.392 2.39986 111.392 3.91986V26.1599C111.392 27.7199 110.552 28.3199 107.232 28.4399V28.9999Z" fill="black"/>
<path d="M158.223 25.3199C158.983 27.4399 158.263 28.2799 154.423 28.4399V28.9999H168.743V28.4399C165.743 27.9999 165.143 27.3599 164.263 25.0399L155.223 0.479862H152.503L144.223 21.9199C142.583 26.0399 141.063 27.7599 138.463 28.4399V28.9999H147.903V28.4399C144.183 27.9199 143.543 26.3999 145.183 22.0799L146.543 18.3999H155.743L158.223 25.3199ZM146.863 17.5999L151.183 6.03986H151.383L155.463 17.5999H146.863Z" fill="black"/>
<path d="M172.25 28.9999H187.37V28.4399C183.81 28.3599 182.73 27.6799 182.73 26.1599V1.83986H183.69C186.77 1.83986 189.17 4.91986 191.97 10.3599L192.57 10.2799L192.37 1.11986H167.21L166.97 10.2799L167.57 10.3599C170.41 4.79986 172.85 1.83986 175.89 1.83986H176.89V26.1599C176.89 27.6799 175.77 28.3599 172.25 28.4399V28.9999Z" fill="black"/>
<path d="M200.727 28.9999H215.847V28.4399C212.287 28.3599 211.207 27.6799 211.207 26.1599V1.83986H212.167C215.247 1.83986 217.647 4.91986 220.447 10.3599L221.047 10.2799L220.847 1.11986H195.687L195.447 10.2799L196.047 10.3599C198.887 4.79986 201.327 1.83986 204.367 1.83986H205.367V26.1599C205.367 27.6799 204.247 28.3599 200.727 28.4399V28.9999Z" fill="black"/>
<path d="M223.99 28.9999H248.91L249.11 18.9599L248.51 18.8799C245.59 25.7599 243.75 28.2399 237.95 28.2399H233.99V14.8799H235.67C238.87 14.8799 240.71 16.2799 241.79 20.3999H242.31V8.71986H241.79C240.71 12.7999 238.87 14.1599 235.67 14.1599H233.99V1.83986H238.15C243.07 1.83986 244.59 4.47986 247.39 10.6799L247.99 10.6399L247.87 1.11986H223.99V1.63986C227.31 1.75986 228.15 2.43986 228.15 3.95986V26.1599C228.15 27.6799 227.31 28.3199 223.99 28.4399V28.9999Z" fill="black"/>
<path d="M262.584 14.5599V1.83986H264.864C269.864 1.83986 271.384 4.23986 271.384 8.23986C271.384 12.7599 270.304 14.5599 265.304 14.5599H262.584ZM262.584 15.2399H264.824C269.384 15.2399 270.464 16.5999 270.864 20.6399L271.184 24.1199C271.504 27.6399 272.344 29.1999 277.344 29.1999C278.664 29.1999 280.104 29.0799 281.584 28.8399V28.3599C278.264 28.2799 277.704 27.7599 277.224 24.5199L276.984 21.4399C276.464 17.6799 274.904 15.0799 269.024 14.8799V14.7599C275.304 13.8799 277.504 11.3199 277.504 7.87986C277.504 4.19986 274.544 1.11986 266.224 1.11986H252.584V1.63986C255.904 1.75986 256.744 2.43986 256.744 3.95986V26.1599C256.744 27.6799 255.904 28.3199 252.584 28.4399V28.9999H266.544V28.4399C263.624 28.3199 262.584 27.7599 262.584 26.1599V15.2399Z" fill="black"/>
<path d="M283.071 29.6799H283.551L285.911 27.6799C287.831 28.7599 290.751 29.5199 292.991 29.5199C299.871 29.5199 302.671 24.7999 302.671 20.1599C302.671 14.9599 298.511 13.2799 294.671 12.0799C289.991 10.5999 287.511 9.11986 287.511 5.99986C287.511 2.99986 289.911 1.35986 292.431 1.35986C295.551 1.35986 298.111 3.91986 300.751 9.39986H301.391V0.359863H300.911L299.151 2.11986C297.671 1.27986 295.391 0.599863 293.031 0.599863C287.431 0.599863 283.471 4.03986 283.471 9.31986C283.471 14.4799 287.711 16.0399 291.911 17.4399C296.711 19.0399 299.111 20.5999 299.111 23.8399C299.111 26.3599 297.231 28.7599 293.591 28.7599C289.631 28.7599 286.351 25.1199 283.711 19.5599H283.071V29.6799Z" fill="black"/>
</svg>
