<svg width="247" height="25" viewBox="0 0 247 25" fill="none" xmlns="http://www.w3.org/2000/svg">
<path d="M0.975281 24.2238H10.0126V23.7686C6.76177 23.346 5.78652 21.9807 5.78652 18.6973V3.77598H5.98157L14.4338 24.2563H15.6041L23.1785 3.77598H23.341V21.9157C23.341 23.216 22.5283 23.6711 20.2202 23.7686V24.2238H31.4356V23.7686C28.7049 23.6711 28.0548 23.151 28.0548 21.9157V3.87351C28.0548 2.63819 28.7049 2.08555 31.4356 1.98802V1.56541H23.146L17.0019 18.2747H16.8394L10.1426 1.56541H0.975281V1.98802C3.771 2.05304 4.97381 3.54842 4.97381 5.49893V18.6973C4.97381 21.9807 4.03107 23.3785 0.975281 23.7686V24.2238Z" fill="white"/>
<path d="M47.4646 21.233C48.0822 22.9559 47.4971 23.6386 44.3763 23.7686V24.2238H56.0143V23.7686C53.5761 23.411 53.0885 22.8909 52.3733 21.0054L45.0264 1.04528H42.8159L36.0866 18.4698C34.7538 21.8181 33.5185 23.216 31.4054 23.7686V24.2238H39.0774V23.7686C36.0541 23.346 35.534 22.1107 36.8668 18.5998L37.9721 15.609H45.449L47.4646 21.233ZM38.2322 14.9589L41.7431 5.56394H41.9056L45.2215 14.9589H38.2322Z" fill="white"/>
<path d="M56.3736 24.2238H67.524C75.9437 24.2238 79.3571 18.5673 79.3571 12.4882C79.3571 6.11659 75.261 1.56541 67.0039 1.56541H56.3736V1.98802C59.0718 2.08555 59.7545 2.63819 59.7545 3.87351V21.9157C59.7545 23.151 59.0718 23.6711 56.3736 23.7686V24.2238ZM64.5007 23.6061V2.15056H66.4512C71.5875 2.15056 74.1882 4.45866 74.1882 12.8133C74.1882 21.1355 72.1727 23.6061 66.5162 23.6061H64.5007Z" fill="white"/>
<path d="M87.9614 24.2238H99.2093V23.7686C96.8687 23.6711 96.0885 23.2485 96.0885 21.9157V12.7808H105.256V21.9157C105.256 23.2485 104.443 23.6711 102.103 23.7686V24.2238H113.383V23.7686C110.652 23.6711 110.002 23.1835 110.002 21.9157V3.841C110.002 2.60568 110.652 2.08555 113.383 1.98802V1.56541H102.103V1.98802C104.443 2.08555 105.256 2.54066 105.256 3.841V12.1306H96.0885V3.841C96.0885 2.54066 96.8687 2.08555 99.2093 1.98802V1.56541H87.9614V1.98802C90.6596 2.08555 91.3422 2.60568 91.3422 3.841V21.9157C91.3422 23.1835 90.6596 23.6711 87.9614 23.7686V24.2238Z" fill="white"/>
<path d="M129.402 21.233C130.02 22.9559 129.435 23.6386 126.314 23.7686V24.2238H137.952V23.7686C135.514 23.411 135.026 22.8909 134.311 21.0054L126.964 1.04528H124.753L118.024 18.4698C116.691 21.8181 115.456 23.216 113.343 23.7686V24.2238H121.015V23.7686C117.992 23.346 117.472 22.1107 118.804 18.5998L119.91 15.609H127.387L129.402 21.233ZM120.17 14.9589L123.681 5.56394H123.843L127.159 14.9589H120.17Z" fill="white"/>
<path d="M140.802 24.2238H153.09V23.7686C150.197 23.7036 149.319 23.151 149.319 21.9157V2.15056H150.099C152.602 2.15056 154.553 4.65371 156.829 9.07485L157.316 9.00983L157.154 1.56541H136.706L136.511 9.00983L136.998 9.07485C139.307 4.55618 141.29 2.15056 143.76 2.15056H144.573V21.9157C144.573 23.151 143.663 23.7036 140.802 23.7686V24.2238Z" fill="white"/>
<path d="M163.945 24.2238H176.233V23.7686C173.34 23.7036 172.462 23.151 172.462 21.9157V2.15056H173.243C175.746 2.15056 177.696 4.65371 179.972 9.07485L180.459 9.00983L180.297 1.56541H159.849L159.654 9.00983L160.142 9.07485C162.45 4.55618 164.433 2.15056 166.903 2.15056H167.716V21.9157C167.716 23.151 166.806 23.7036 163.945 23.7686V24.2238Z" fill="white"/>
<path d="M182.852 24.2238H203.104L203.267 16.0642L202.779 15.9991C200.406 21.5906 198.911 23.6061 194.197 23.6061H190.979V12.7483H192.344C194.945 12.7483 196.44 13.8861 197.318 17.2345H197.74V7.74201H197.318C196.44 11.0579 194.945 12.1631 192.344 12.1631H190.979V2.15056H194.36C198.358 2.15056 199.593 4.29612 201.869 9.33492L202.357 9.30241L202.259 1.56541H182.852V1.98802C185.55 2.08555 186.232 2.63819 186.232 3.87351V21.9157C186.232 23.151 185.55 23.6711 182.852 23.7686V24.2238Z" fill="white"/>
<path d="M214.217 12.4882V2.15056H216.07C220.134 2.15056 221.369 4.10107 221.369 7.3519C221.369 11.0254 220.491 12.4882 216.428 12.4882H214.217ZM214.217 13.0409H216.038C219.743 13.0409 220.621 14.1462 220.946 17.4295L221.206 20.2577C221.466 23.1185 222.149 24.3863 226.213 24.3863C227.285 24.3863 228.456 24.2888 229.659 24.0937V23.7036C226.96 23.6386 226.505 23.216 226.115 20.5828L225.92 18.0797C225.497 15.0239 224.23 12.9108 219.451 12.7483V12.6508C224.555 11.9356 226.343 9.85505 226.343 7.05933C226.343 4.06856 223.937 1.56541 217.175 1.56541H206.09V1.98802C208.788 2.08555 209.471 2.63819 209.471 3.87351V21.9157C209.471 23.151 208.788 23.6711 206.09 23.7686V24.2238H217.435V23.7686C215.062 23.6711 214.217 23.216 214.217 21.9157V13.0409Z" fill="white"/>
<path d="M230.867 24.7764H231.258L233.176 23.151C234.736 24.0287 237.109 24.6464 238.93 24.6464C244.521 24.6464 246.797 20.8104 246.797 17.0394C246.797 12.8133 243.416 11.448 240.295 10.4727C236.491 9.2699 234.476 8.06709 234.476 5.53144C234.476 3.09331 236.426 1.76046 238.474 1.76046C241.01 1.76046 243.091 3.841 245.236 8.29465H245.756V0.947754H245.366L243.936 2.37812C242.733 1.69545 240.88 1.1428 238.962 1.1428C234.411 1.1428 231.193 3.93853 231.193 8.22963C231.193 12.4232 234.638 13.691 238.052 14.8288C241.953 16.1292 243.903 17.397 243.903 20.0302C243.903 22.0782 242.375 24.0287 239.417 24.0287C236.199 24.0287 233.533 21.0704 231.388 16.5518H230.867V24.7764Z" fill="white"/>
</svg>
